<?xml version="1.0" encoding="utf-8"?>
<!-- Generator: Adobe Illustrator 16.0.0, SVG Export Plug-In . SVG Version: 6.00 Build 0)  -->
<!DOCTYPE svg PUBLIC "-//W3C//DTD SVG 1.1//EN" "http://www.w3.org/Graphics/SVG/1.1/DTD/svg11.dtd">
<svg version="1.1" id="Layer_1" xmlns="http://www.w3.org/2000/svg" xmlns:xlink="http://www.w3.org/1999/xlink" x="0px" y="0px"
	 width="512px" height="512px" viewBox="0 0 512 512" enable-background="new 0 0 512 512" xml:space="preserve">
<rect x="144.612" y="167.291" fill="#7F603B" width="85.388" height="26.513"/>
<rect x="138.471" y="148.576" fill="#AD8A59" width="91.529" height="18.715"/>
<rect x="208.945" y="117.871" fill="#AD8A59" width="21.055" height="30.705"/>
<line fill="#4C4C4B" x1="230" y1="216.5" x2="230" y2="429.5"/>
<rect x="161.085" y="173.236" fill="#76BCC4" width="58.387" height="17.156"/>
<rect x="226" y="23.75" fill="#493E30" width="4" height="94.121"/>
<rect x="230" y="167.291" fill="#6D5235" width="85.389" height="26.513"/>
<polygon fill="#967751" points="342.291,193.901 230,193.901 230,248 315.389,248 "/>
<polygon fill="#AD8A59" points="117.709,193.901 230,193.901 230,248 144.611,248 "/>
<rect x="230" y="148.576" fill="#967751" width="91.529" height="18.715"/>
<rect x="230" y="117.871" fill="#967751" width="21.055" height="30.705"/>
<path fill="#424241" d="M230,216.5v213l53-16c0,0,64.5-51,78-154.5"/>
<rect x="240.527" y="173.236" fill="#6FAFB2" width="58.387" height="17.156"/>
<rect x="230" y="23.75" fill="#493E30" width="4" height="94.121"/>
<path fill="#76BCC4" stroke="#9B5216" stroke-width="2" stroke-miterlimit="10" d="M287.75,178.75"/>
<path fill="#494949" d="M230,216.5v213l-53-16c0,0-64.5-51-78-154.5"/>
<rect x="205" y="30" fill="#FF4E00" width="14.473" height="77.5"/>
<g>
</g>
<g>
</g>
<g>
</g>
<g>
</g>
<g>
</g>
</svg>
